<svg width="32" height="32" viewBox="0 0 32 32" xmlns="http://www.w3.org/2000/svg" class="n-fx0"><title>icon_icon_Diamond rush_active</title><path d="M21.84 4a3.5 3.5 0 013.038 1.764l4.681 8.191a3.5 3.5 0 01-.518 4.164l-10.52 10.925a3.5 3.5 0 01-4.949.094l-.093-.094L2.959 18.12a3.5 3.5 0 01-.518-4.164l4.68-8.191A3.5 3.5 0 0110.162 4zm0 3H10.16a.5.5 0 00-.433.252l-4.681 8.192a.5.5 0 00.074.595l10.52 10.924.084.07a.5.5 0 00.636-.07L26.88 16.04a.5.5 0 00.074-.595l-4.68-8.192A.5.5 0 0021.838 7zm-.78 9.44a1.5 1.5 0 01.104 2.007l-.103.114-4 4a1.5 1.5 0 01-2.008.103l-.114-.103-4-4a1.5 1.5 0 012.008-2.225l.114.103L16 19.38l2.94-2.94a1.5 1.5 0 012.12 0z" fill="#7c7c7c" fill-rule="nonzero"></path></svg>