<svg xmlns="http://www.w3.org/2000/svg" width="44" height="44" viewBox="0 0 44 44" class="stream-manager-player-status-icon"><path d="M30 6a5.5 5.5 0 015.5 5.5v1.388l3.688-1.638A2 2 0 0142 13.078v17.844a2 2 0 01-2.812 1.828L35.5 31.111V32.5a5.5 5.5 0 01-5.279 5.496L30 38H7.5A5.5 5.5 0 012 32.5v-21A5.5 5.5 0 017.5 6zm0 3H7.5A2.5 2.5 0 005 11.5v21A2.5 2.5 0 007.5 35H30a2.5 2.5 0 002.5-2.5v-21A2.5 2.5 0 0030 9zm9 5.616l-3 1.333V28.05l3 1.333V14.616zM10.5 12a2.5 2.5 0 110 5 2.5 2.5 0 010-5z" fill="#7c7c7c" fill-rule="nonzero"></path></svg>