<svg xmlns="http://www.w3.org/2000/svg" width="32" height="32" viewBox="0 0 32 32" class="n-fx0"><path d="M24.5 4A5.5 5.5 0 0130 9.5v11a5.5 5.5 0 01-5.5 5.5h-3.88l-3.56 3.56a1.5 1.5 0 01-2.007.104l-.114-.103L11.38 26H7.5a5.5 5.5 0 01-5.496-5.279L2 20.5v-11A5.5 5.5 0 017.5 4zm0 3h-17A2.5 2.5 0 005 9.5v11A2.5 2.5 0 007.5 23H12a1.5 1.5 0 011.06.44L16 26.378l2.94-2.94a1.5 1.5 0 01.912-.432L20 23h4.5a2.5 2.5 0 002.5-2.5v-11A2.5 2.5 0 0024.5 7zM16 13a2 2 0 110 4 2 2 0 010-4zm-7 0a2 2 0 110 4 2 2 0 010-4zm14 0a2 2 0 110 4 2 2 0 010-4z" fill="#7c7c7c" fill-rule="nonzero"></path></svg>