<svg xmlns="http://www.w3.org/2000/svg" width="32" height="32" viewBox="0 0 32 32">
<path d="M28 19a5.002 5.002 0 01-3.341 4.718l-.159.053V26.5a1.5 1.5 0 01-2.993.144L21.5 26.5v-2.729l-.159-.053a5.002 5.002 0 010-9.436l.159-.053V5.5a1.5 1.5 0 012.993-.144l.007.144v8.729l.159.053A5.002 5.002 0 0128 19zM9 4a1.5 1.5 0 011.493 1.356l.007.144v2.729a5.002 5.002 0 01-.01 9.545l.01-.003V26.5a1.5 1.5 0 01-2.993.144L7.5 26.5v-8.729a5.002 5.002 0 01.01-9.545l-.01.003V5.5A1.5 1.5 0 019 4zm14 13a2 2 0 100 4 2 2 0 000-4zM9 11a2 2 0 100 4 2 2 0 000-4z" fill="#7c7c7c" >
</path>
</svg>