<svg xmlns="http://www.w3.org/2000/svg" width="32" height="32" viewBox="0 0 32 32" class="n-fx0"><path d="M16 2c7.732 0 14 6.268 14 14s-6.268 14-14 14S2 23.732 2 16 8.268 2 16 2zm0 3C9.925 5 5 9.925 5 16s4.925 11 11 11 11-4.925 11-11S22.075 5 16 5zm2 14a1 1 0 011 1 3 3 0 01-6 0 1 1 0 011.993-.117L15 20a1 1 0 001.993.117L17 20a1 1 0 011-1zm4.707-6.707a1 1 0 01.083 1.32l-.083.094L21.415 15l1.292 1.293a1 1 0 01.083 1.32l-.083.094a1 1 0 01-1.32.083l-.094-.083-2-2a1 1 0 01-.083-1.32l.083-.094 2-2a1 1 0 011.414 0zM11 13a2 2 0 110 4 2 2 0 010-4z" fill="#7c7c7c" fill-rule="nonzero"></path></svg>